<svg id="a1728201-032b-4851-bedc-addce6066584" data-name="Layer 1" xmlns="http://www.w3.org/2000/svg" width="61" height="127.4" viewBox="0 0 61 127.4"><title>logo</title><path d="M70,128.6a3.68,3.68,0,0,1-1.41,2.76,2.89,2.89,0,0,1-2.87-.2c-1.9-1-6.49-1.59-13.62-1.9-.82,0-1.59-.06-2.31-.08l-.1,0v0c-2.43-.06-4.16-.07-4.18-.07a2.42,2.42,0,0,0-2.5,2.5,2.44,2.44,0,0,0,.89,2,3.61,3.61,0,0,0,2.21.62,7.1,7.1,0,0,0,1.47-.16A3.67,3.67,0,0,0,49.85,133l-.7-.71a2.59,2.59,0,0,1-1.65.85l-.12,0a4,4,0,0,1-2.87-.27A1.48,1.48,0,0,1,44,131.6a1.43,1.43,0,0,1,1.5-1.5s1.67,0,4,.07h0c.9.41,4.22,2.09,3.49,4.28s-5,2.65-6.52,2.65c0,0-4.15-.09-5.3-2.06v0l-.36-.92h-1.7l-.11.35c-.83,2.48-5.5,2.65-5.53,2.65-1.57,0-5.8-.47-6.53-2.65s2.59-3.87,3.49-4.28h0c2.35-.06,4-.07,4-.07a1.43,1.43,0,0,1,1.5,1.5,1.48,1.48,0,0,1-.51,1.25,4,4,0,0,1-2.87.27l-.11,0a2.59,2.59,0,0,1-1.66-.85l-.7.71a3.67,3.67,0,0,0,2.28,1.14,7.1,7.1,0,0,0,1.47.16,3.61,3.61,0,0,0,2.21-.62,2.44,2.44,0,0,0,.89-2,2.42,2.42,0,0,0-2.5-2.5s-1.75,0-4.18.07v0l-.1,0c-.72,0-1.5,0-2.31.08-7.13.31-11.72.94-13.62,1.9a2.91,2.91,0,0,1-2.87.2A3.68,3.68,0,0,1,10,128.6c0-.91,0-3.69,1.72-4.55,1.35-.67,3.48,1.06,4.11,1.61A.44.44,0,0,1,16,126c-.05.49-.24,1.67-.92,2-.5.22-1.27,0-2.25-.79l-.6.8c1.3,1,2.39,1.28,3.25.91,1.12-.49,1.43-2,1.52-2.77a1.44,1.44,0,0,0-.48-1.23c-.13-.12-.3-.26-.49-.41s-.63-.47-1-.71V26.21c.37-.24.71-.49,1-.71l.49-.41A1.41,1.41,0,0,0,17,23.87c-.09-.83-.4-2.29-1.52-2.77-.86-.38-1.95-.07-3.25.9l.6.8c1-.73,1.75-1,2.25-.79.68.3.87,1.47.92,2a.43.43,0,0,1-.14.37c-.63.55-2.76,2.29-4.11,1.61C10,25.09,10,22.31,10,21.4a3.71,3.71,0,0,1,1.41-2.76,2.89,2.89,0,0,1,2.87.21c1.9.95,6.49,1.59,13.62,1.89.81,0,1.59.06,2.31.08l.1,0v0c2.43.07,4.16.07,4.18.07A2.41,2.41,0,0,0,37,18.4a2.46,2.46,0,0,0-.89-2c-1.24-1-3.32-.54-3.68-.46a3.71,3.71,0,0,0-2.28,1.15l.7.7a2.66,2.66,0,0,1,1.65-.85h.12a3.93,3.93,0,0,1,2.87.26A1.49,1.49,0,0,1,36,18.4a1.42,1.42,0,0,1-1.5,1.5s-1.69,0-4.06-.07c-.93-.43-4.19-2.09-3.47-4.27s5-2.66,6.51-2.66c.05,0,4.72.17,5.55,2.66l.11.34h1.7l.35-.9,0,0c1.16-2,5.25-2.06,5.29-2.06,1.57,0,5.8.48,6.53,2.66s-2.54,3.84-3.47,4.27c-2.37.07-4,.07-4.06.07A1.42,1.42,0,0,1,44,18.4a1.49,1.49,0,0,1,.51-1.25,3.93,3.93,0,0,1,2.87-.26h.11a2.65,2.65,0,0,1,1.66.85l.7-.7a3.71,3.71,0,0,0-2.28-1.15c-.36-.08-2.44-.5-3.68.46a2.46,2.46,0,0,0-.89,2,2.41,2.41,0,0,0,2.5,2.5s1.75,0,4.18-.07v0l.1,0c.72,0,1.49,0,2.31-.08,7.13-.3,11.72-.94,13.62-1.89a2.89,2.89,0,0,1,2.87-.21A3.71,3.71,0,0,1,70,21.4c0,.91,0,3.69-1.72,4.55-1.36.68-3.51-1.08-4.14-1.64A.33.33,0,0,1,64,24c.1-1,.45-1.79.92-2s1.28.05,2.26.78l.6-.8c-1.3-1-2.4-1.28-3.26-.9-1.12.5-1.43,2-1.51,2.82a1.34,1.34,0,0,0,.45,1.14,6.63,6.63,0,0,0,.52.43,9.22,9.22,0,0,0,1,.72v97.58a8.65,8.65,0,0,0-1,.72,6.63,6.63,0,0,0-.52.43,1.35,1.35,0,0,0-.45,1.15c.08.84.39,2.32,1.51,2.81.86.38,2,.08,3.26-.9l-.6-.8c-1,.74-1.76,1-2.26.79s-.82-1-.92-2a.34.34,0,0,1,.12-.3c.63-.56,2.78-2.32,4.14-1.64C70,124.91,70,127.69,70,128.6Z" transform="translate(-9.5 -12.4)" style="fill:#e9ec96;stroke:#231f20;stroke-miterlimit:10"/><line x1="30.5" y1="14.6" x2="30.5" y2="110.6" style="fill:none;stroke:#c7daf1;stroke-miterlimit:10;stroke-width:40px"/><line x1="20" y1="65.1" x2="33" y2="55.1" style="fill:none;stroke:#fff;stroke-miterlimit:10"/><line x1="19" y1="75.1" x2="41" y2="57.1" style="fill:none;stroke:#fff;stroke-miterlimit:10;stroke-width:2px"/><line x1="29" y1="75.1" x2="39" y2="66.1" style="fill:none;stroke:#fff;stroke-miterlimit:10"/><polygon points="23.93 108.64 19.4 102.46 11.74 102.69 16.22 96.46 13.63 89.25 20.93 91.59 27 86.9 27.03 94.56 33.37 98.88 26.09 101.28 23.93 108.64" style="fill:#bb56a0;stroke:#231f20;stroke-miterlimit:10"/><line x1="19.29" y1="102.7" x2="7.91" y2="126.98" style="fill:#231f20;stroke:#231f20;stroke-miterlimit:10;stroke-width:2px"/></svg>